<?xml version="1.0" standalone="no"?>
<!DOCTYPE svg PUBLIC "-//W3C//DTD SVG 20010904//EN"
 "http://www.w3.org/TR/2001/REC-SVG-20010904/DTD/svg10.dtd">
<svg version="1.0" xmlns="http://www.w3.org/2000/svg"
 width="300.000000pt" height="300.000000pt" viewBox="0 0 300.000000 300.000000"
 preserveAspectRatio="xMidYMid meet">
<metadata>
Created by potrace 1.11, written by Peter Selinger 2001-2013
</metadata>
<g transform="translate(0.000000,300.000000) scale(0.100000,-0.100000)"
fill="#000000" stroke="none">
<path d="M64 2220 c-12 -4 -31 -21 -43 -36 -21 -27 -21 -28 -21 -655 l0 -627
25 -30 c14 -17 39 -33 55 -37 25 -5 30 -12 30 -35 0 -16 4 -32 10 -35 11 -7
52 13 46 23 -2 4 0 16 4 27 7 19 16 20 256 18 137 -1 255 -2 262 -2 6 -1 12
-12 12 -25 0 -13 6 -29 14 -35 21 -18 46 -2 46 28 0 22 7 29 36 40 20 7 43 26
55 44 18 31 19 57 19 640 0 666 0 661 -59 691 -26 14 -81 16 -378 15 -191 0
-358 -4 -369 -9z m729 -70 c9 -13 12 -75 12 -226 l0 -209 -373 -3 -372 -2 0
214 c0 180 2 217 15 230 14 13 62 15 361 15 319 -1 345 -2 357 -19z m13 -865
c-1 -284 -4 -367 -14 -377 -20 -20 -698 -20 -718 0 -11 11 -14 81 -14 378 l0
364 373 0 373 0 0 -365z"/>
<path d="M145 1980 c-3 -5 -6 -47 -7 -94 -2 -93 10 -123 42 -106 14 8 18 23
18 92 0 46 -2 91 -4 101 -6 18 -39 24 -49 7z"/>
<path d="M145 1560 c-6 -9 -9 -89 -6 -166 1 -38 35 -54 51 -24 9 17 11 164 2
188 -5 15 -38 16 -47 2z"/>
<path d="M2493 2223 c-7 -2 -13 -14 -14 -26 0 -20 -1 -21 -8 -3 -7 17 -10 16
-35 -17 -27 -35 -27 -39 -25 -154 2 -128 11 -158 56 -192 15 -11 25 -21 21
-21 -4 0 -23 14 -43 31 -40 35 -40 35 -21 -12 27 -64 82 -99 150 -94 67 4 75
48 16 96 -22 18 -43 42 -46 53 -8 24 -14 96 -7 79 8 -21 27 -15 57 16 l28 29
-23 5 c-22 4 -21 4 4 6 33 1 47 29 24 46 -9 6 -32 11 -51 10 -20 -1 -37 2 -37
6 -1 5 -2 35 -3 67 -2 74 -10 89 -43 75z m-16 -195 c-3 -8 -6 -5 -6 6 -1 11 2
17 5 13 3 -3 4 -12 1 -19z m0 -70 c-3 -8 -6 -5 -6 6 -1 11 2 17 5 13 3 -3 4
-12 1 -19z m15 -63 c9 -20 9 -20 -6 -1 -9 11 -16 27 -15 35 0 14 1 14 6 1 3
-8 10 -24 15 -35z m43 -33 c-3 -3 -11 0 -18 7 -9 10 -8 11 6 5 10 -3 15 -9 12
-12z m40 -52 c-3 -5 -12 -10 -18 -10 -7 0 -6 4 3 10 19 12 23 12 15 0z"/>
<path d="M1305 2072 c-11 -2 -33 -16 -50 -30 -26 -24 -27 -24 -10 -3 20 24 20
24 0 13 -46 -24 -70 -62 -70 -112 0 -26 -3 -46 -7 -43 -13 8 -8 -20 11 -62 32
-70 86 -105 160 -105 44 0 141 46 141 67 0 23 -19 53 -35 53 -23 0 -27 18 -10
44 60 91 -21 201 -130 178z m15 -64 c-29 -8 -32 -11 -17 -19 25 -14 21 -34
-14 -74 -30 -34 -33 -35 -50 -19 -11 9 -19 22 -19 28 0 6 7 0 16 -12 21 -30
36 -18 28 23 -5 28 -1 38 20 59 14 15 35 26 48 25 17 -1 14 -3 -12 -11z m-99
-21 c-10 -9 -11 -8 -5 6 3 10 9 15 12 12 3 -3 0 -11 -7 -18z m170 6 c13 -16
12 -17 -3 -4 -10 7 -18 15 -18 17 0 8 8 3 21 -13z m-25 -92 c-16 -16 -25 -34
-22 -40 8 -12 -6 -15 -17 -5 -7 7 55 83 62 77 3 -2 -8 -16 -23 -32z m-156 -65
c0 -6 -7 -1 -15 10 -8 10 -15 23 -15 28 0 6 7 1 15 -10 8 -10 15 -23 15 -28z
m215 -16 c-10 -11 -22 -20 -28 -20 -5 0 1 9 14 20 31 25 37 25 14 0z"/>
<path d="M1675 2072 c-4 -4 -25 -7 -48 -7 -35 0 -42 -4 -48 -25 -6 -20 -7 -21
-8 -5 -1 18 -3 17 -28 -8 -26 -25 -28 -33 -29 -117 -1 -81 1 -93 20 -106 11
-7 15 -14 8 -14 -7 0 3 -14 22 -30 35 -32 61 -32 71 -1 3 9 5 53 4 97 -1 111
0 130 9 119 4 -5 16 -10 27 -10 17 0 20 -8 23 -60 4 -104 14 -122 52 -92 9 6
6 2 -6 -10 l-23 -21 30 -25 c33 -27 68 -26 70 2 1 9 2 55 3 103 0 47 4 89 8
93 4 4 4 13 2 20 -6 15 32 45 56 45 8 -1 0 -7 -17 -15 -39 -17 -41 -27 -10
-40 19 -9 22 -18 25 -83 2 -56 7 -74 19 -79 20 -8 44 22 36 45 -4 14 -3 15 5
3 12 -17 -1 -49 -24 -58 -13 -5 -12 -8 3 -25 29 -32 52 -41 69 -27 12 10 15
38 13 136 l-1 124 -34 35 c-19 19 -45 34 -57 35 -47 2 -73 -3 -97 -20 -24 -17
-26 -17 -50 0 -27 19 -84 31 -95 21z m29 -64 c-3 -5 -9 -6 -14 -3 -5 3 -11 1
-15 -5 -3 -5 -11 -10 -18 -10 -6 0 -3 6 7 13 21 15 48 18 40 5z m-127 -20 c-3
-8 -6 -5 -6 6 -1 11 2 17 5 13 3 -3 4 -12 1 -19z m182 -12 c-3 -3 -11 5 -18
17 -13 21 -12 21 5 5 10 -10 16 -20 13 -22z m176 16 c-3 -3 -11 0 -18 7 -9 10
-8 11 6 5 10 -3 15 -9 12 -12z m18 -32 c3 -11 1 -18 -4 -14 -5 3 -9 12 -9 20
0 20 7 17 13 -6z m-186 -22 c-3 -8 -6 -5 -6 6 -1 11 2 17 5 13 3 -3 4 -12 1
-19z m-190 -10 c-3 -8 -6 -5 -6 6 -1 11 2 17 5 13 3 -3 4 -12 1 -19z m0 -40
c-3 -8 -6 -5 -6 6 -1 11 2 17 5 13 3 -3 4 -12 1 -19z m0 -40 c-3 -8 -6 -5 -6
6 -1 11 2 17 5 13 3 -3 4 -12 1 -19z m-6 -41 c-10 -9 -11 -8 -5 6 3 10 9 15
12 12 3 -3 0 -11 -7 -18z"/>
<path d="M2097 2040 l-44 -39 0 -148 c0 -154 7 -189 35 -178 14 5 14 4 5 -6
-17 -17 21 -59 54 -59 24 0 31 15 35 83 l3 39 51 2 c121 4 197 137 145 252
-31 69 -112 107 -176 84 -11 -4 -30 -4 -42 1 -17 6 -30 0 -66 -31z m20 -42
c-3 -8 -6 -5 -6 6 -1 11 2 17 5 13 3 -3 4 -12 1 -19z m128 12 c-27 -12 -43
-12 -25 0 8 5 22 9 30 9 10 0 8 -3 -5 -9z m-53 -22 c-19 -19 -14 -31 11 -24
31 7 67 -19 67 -49 0 -50 -58 -71 -110 -39 -14 8 -17 13 -8 10 14 -4 16 1 11
31 -5 28 -3 34 7 28 10 -6 12 -4 7 10 -7 16 7 45 21 45 3 0 1 -5 -6 -12z m128
-8 c6 -11 8 -20 6 -20 -3 0 -10 9 -16 20 -6 11 -8 20 -6 20 3 0 10 -9 16 -20z
m-186 -71 c4 -8 0 -5 -8 5 -9 11 -16 31 -15 45 1 24 2 24 8 -5 4 -17 11 -37
15 -45z m203 9 c-3 -7 -5 -2 -5 12 0 14 2 19 5 13 2 -7 2 -19 0 -25z m-6 -45
c-12 -20 -14 -14 -5 12 4 9 9 14 11 11 3 -2 0 -13 -6 -23z m-31 -48 c-13 -14
-27 -25 -32 -25 -9 0 42 49 51 50 3 0 -6 -11 -19 -25z m-149 -21 c23 -10 26
-13 9 -9 -14 4 -31 7 -37 7 -7 1 -13 5 -13 10 0 11 2 10 41 -8z m64 -14 c3 -6
-1 -7 -9 -4 -18 7 -21 14 -7 14 6 0 13 -4 16 -10z m-98 -22 c-3 -8 -6 -5 -6 6
-1 11 2 17 5 13 3 -3 4 -12 1 -19z m0 -40 c-3 -8 -6 -5 -6 6 -1 11 2 17 5 13
3 -3 4 -12 1 -19z m0 -40 c-3 -8 -6 -5 -6 6 -1 11 2 17 5 13 3 -3 4 -12 1 -19z"/>
<path d="M2706 2065 c-12 -13 -14 -21 -5 -38 10 -21 9 -21 -5 -3 -9 10 -13 24
-9 30 3 6 -7 -1 -23 -16 l-28 -28 60 -120 c62 -125 66 -150 20 -150 -34 0 -51
-24 -32 -43 8 -8 13 -17 10 -19 -10 -11 39 -42 69 -43 39 -2 69 10 85 35 14
23 152 365 152 377 0 5 -5 14 -11 20 -24 24 -138 -60 -156 -114 -9 -25 -8 -36
7 -58 17 -25 19 -26 29 -9 6 11 11 14 11 8 0 -5 -6 -18 -13 -28 -12 -16 -19
-7 -64 86 -58 119 -73 137 -97 113z m24 -100 c0 -5 -5 -3 -10 5 -5 8 -10 20
-10 25 0 6 5 3 10 -5 5 -8 10 -19 10 -25z m25 -45 c9 -16 13 -30 11 -30 -3 0
-12 14 -21 30 -9 17 -13 30 -11 30 3 0 12 -13 21 -30z m136 3 c-12 -20 -14
-14 -5 12 4 9 9 14 11 11 3 -2 0 -13 -6 -23z m-101 -78 c0 -5 -5 -3 -10 5 -5
8 -10 20 -10 25 0 6 5 3 10 -5 5 -8 10 -19 10 -25z m27 -97 c-3 -7 -5 -2 -5
12 0 14 2 19 5 13 2 -7 2 -19 0 -25z m-17 -43 c0 -6 -56 -35 -67 -35 -4 1 8 9
27 20 39 22 40 22 40 15z"/>
<path d="M1327 1374 c-2 -3 -17 -6 -33 -8 -47 -6 -78 -25 -104 -63 -24 -35
-25 -43 -25 -192 0 -152 1 -156 22 -159 15 -2 23 3 28 18 4 12 9 19 12 17 9
-10 -18 -47 -35 -47 -13 -1 -9 -8 16 -30 36 -34 45 -36 64 -17 9 10 13 43 12
114 -1 82 2 100 13 96 17 -7 47 19 75 65 25 41 16 54 -43 56 -24 0 -44 6 -47
14 -2 6 3 12 11 12 19 0 70 48 63 59 -3 5 3 11 14 14 21 5 27 31 10 42 -14 9
-47 14 -53 9z m-47 -17 c0 -2 -10 -12 -22 -23 l-23 -19 19 23 c18 21 26 27 26
19z m47 -52 c-10 -7 -25 -22 -33 -32 -14 -17 -14 -16 -4 4 5 12 18 27 28 32
25 15 30 13 9 -4z m-94 -10 c-3 -9 -8 -14 -10 -11 -3 3 -2 9 2 15 9 16 15 13
8 -4z m-6 -57 c-3 -7 -5 -2 -5 12 0 14 2 19 5 13 2 -7 2 -19 0 -25z m3 -43 c0
-8 -2 -15 -4 -15 -2 0 -6 7 -10 15 -3 8 -1 15 4 15 6 0 10 -7 10 -15z m-3 -57
c-3 -7 -5 -2 -5 12 0 14 2 19 5 13 2 -7 2 -19 0 -25z m70 7 c-9 -19 -13 -21
-15 -9 -3 13 12 33 25 34 0 0 -4 -11 -10 -25z m53 19 c0 -8 -19 -13 -24 -6 -3
5 1 9 9 9 8 0 15 -2 15 -3z m-123 -66 c-3 -8 -6 -5 -6 6 -1 11 2 17 5 13 3 -3
4 -12 1 -19z"/>
<path d="M1753 1364 c-3 -8 -8 -12 -12 -9 -12 7 -61 -44 -61 -64 0 -23 20 -39
43 -35 11 1 20 4 21 6 2 2 15 19 29 39 15 20 27 43 27 51 0 21 -40 31 -47 12z"/>
<path d="M2081 1342 c-35 -30 -44 -45 -45 -72 -1 -19 3 -38 8 -42 6 -4 -6 -7
-26 -6 -20 1 -48 -6 -62 -15 -14 -10 -29 -17 -33 -17 -4 0 -1 5 7 10 8 5 10
10 4 10 -16 0 -68 -52 -81 -80 -5 -14 -9 -40 -7 -57 2 -18 0 -33 -5 -33 -14 0
4 -55 29 -90 40 -56 124 -81 186 -55 27 11 34 11 48 -3 13 -13 20 -14 34 -6
15 10 17 36 20 239 2 216 -2 255 -27 255 -3 0 -26 -17 -50 -38z m26 -17 c0 -8
-4 -15 -9 -15 -10 0 -11 14 -1 23 9 10 10 9 10 -8z m-7 -117 c0 -11 -12 -10
-30 2 -12 7 -10 9 8 7 12 0 22 -5 22 -9z m-187 -43 c-3 -9 -8 -14 -10 -11 -3
3 -2 9 2 15 9 16 15 13 8 -4z m92 -5 c-3 -5 -11 -10 -17 -10 -6 0 -21 -8 -32
-17 -20 -17 -20 -17 -6 1 8 10 23 22 35 26 27 12 27 11 20 0z m68 -18 c9 -8
17 -20 17 -26 0 -6 -7 0 -16 12 -8 12 -21 22 -29 22 -8 0 -17 4 -20 10 -8 14
26 1 48 -18z m-176 -24 c-3 -8 -6 -5 -6 6 -1 11 2 17 5 13 3 -3 4 -12 1 -19z
m53 -20 c0 13 48 16 68 4 20 -13 23 -54 5 -74 -26 -29 -77 -23 -107 13 -14 17
-26 38 -26 47 1 9 7 3 14 -14 22 -49 35 -50 29 -2 -3 32 -2 39 6 28 7 -10 11
-11 11 -2z m153 -13 c4 -8 3 -16 -1 -19 -4 -3 -9 4 -9 15 -2 23 3 25 10 4z m2
-44 c3 -5 2 -12 -3 -15 -5 -3 -9 1 -9 9 0 17 3 19 12 6z m-211 -64 l21 -18
-22 11 c-22 10 -43 39 -43 57 0 4 6 -1 12 -12 6 -11 20 -28 32 -38z m192 -25
c-17 -16 -18 -16 -5 5 7 12 15 20 18 17 3 -2 -3 -12 -13 -22z m-35 1 c11 -15
11 -16 0 -6 -7 6 -21 9 -30 6 -14 -4 -14 -3 -1 6 8 6 16 11 16 11 1 0 8 -8 15
-17z m-54 -9 c-3 -3 -12 -4 -19 -1 -8 3 -5 6 6 6 11 1 17 -2 13 -5z"/>
<path d="M2354 1222 c-10 -1 -42 -14 -70 -28 -58 -29 -88 -71 -90 -126 -2 -31
4 -44 38 -78 21 -23 30 -36 18 -30 -11 6 -26 20 -33 30 -18 30 -29 24 -13 -7
20 -39 54 -69 100 -88 45 -19 40 -30 -13 -27 -53 3 -58 -17 -18 -63 37 -41 84
-52 128 -29 62 32 82 114 41 172 -24 33 -27 42 -12 42 6 0 9 -3 8 -7 -1 -5 4
-18 11 -31 10 -20 15 -21 28 -10 40 33 56 137 30 188 -11 20 -11 29 -1 45 22
34 3 48 -68 49 -36 1 -73 0 -84 -2z m-98 -70 c-17 -16 -18 -16 -5 5 7 12 15
20 18 17 3 -2 -3 -12 -13 -22z m184 -22 c6 -11 8 -20 6 -20 -3 0 -10 9 -16 20
-6 11 -8 20 -6 20 3 0 10 -9 16 -20z m-47 -54 c14 -43 -19 -71 -79 -67 -26 1
-74 48 -73 70 0 12 2 11 8 -4 5 -11 18 -28 29 -39 21 -18 21 -18 12 13 -5 19
-5 31 1 31 5 0 9 5 9 11 0 5 -5 7 -12 3 -7 -4 -8 -3 -4 5 4 6 10 10 14 7 4 -2
16 0 27 4 30 11 58 -3 68 -34z m70 9 c4 -8 3 -16 -1 -19 -4 -3 -9 4 -9 15 -2
23 3 25 10 4z m-98 -145 c13 -6 15 -9 5 -9 -8 0 -22 4 -30 9 -18 12 -2 12 25
0z m33 -45 c-3 -3 -9 2 -12 12 -6 14 -5 15 5 6 7 -7 10 -15 7 -18z m-8 -61
c-8 -8 -23 -20 -34 -25 -13 -7 -9 -1 9 15 34 29 43 33 25 10z"/>
<path d="M2693 1221 c-13 -3 -32 -14 -43 -23 -11 -10 -20 -13 -20 -8 0 17 -37
-12 -56 -44 -43 -74 -20 -189 47 -237 61 -43 186 -32 234 21 16 18 17 21 1 45
-15 23 -45 38 -31 15 7 -11 -52 -50 -75 -50 -8 0 4 9 27 19 43 20 51 43 22 62
-12 7 -11 9 2 9 33 0 50 84 28 133 -19 42 -87 71 -136 58z m-82 -74 c-10 -9
-11 -8 -5 6 3 10 9 15 12 12 3 -3 0 -11 -7 -18z m100 12 c-30 -9 -32 -12 -18
-27 18 -21 12 -37 -24 -76 -23 -25 -30 -28 -43 -17 -9 8 -16 18 -16 24 0 6 6
3 13 -8 21 -27 36 -10 30 33 -4 34 -1 42 22 60 15 12 37 22 49 21 14 -1 10 -4
-13 -10z m69 -30 c15 -28 5 -23 -15 7 -9 15 -12 23 -6 20 6 -4 16 -16 21 -27z
m-173 -41 c-3 -8 -6 -5 -6 6 -1 11 2 17 5 13 3 -3 4 -12 1 -19z m164 -11 c-10
-9 -11 -8 -5 6 3 10 9 15 12 12 3 -3 0 -11 -7 -18z m-43 -57 c-7 -11 -17 -20
-22 -20 -5 0 -1 9 9 20 10 11 20 20 22 20 2 0 -2 -9 -9 -20z m-86 -60 c6 0 9
-3 5 -6 -8 -9 -65 33 -78 58 -6 12 5 5 25 -16 20 -20 42 -36 48 -36z m88 -15
c0 -7 -30 -13 -34 -7 -3 4 4 9 15 9 10 1 19 0 19 -2z"/>
<path d="M1461 1184 l-38 -33 -1 -90 c-1 -67 2 -94 13 -105 8 -8 15 -18 15
-22 0 -12 50 -54 65 -54 23 0 30 22 32 105 2 120 4 141 10 128 2 -7 9 -13 14
-13 17 0 56 45 51 59 -3 8 0 11 6 7 12 -7 26 29 17 43 -3 6 -37 9 -76 9 -63
-2 -73 -5 -108 -34z m149 -18 c0 -2 -12 -11 -27 -20 l-28 -17 24 20 c23 21 31
25 31 17z m-123 -58 c-3 -8 -6 -5 -6 6 -1 11 2 17 5 13 3 -3 4 -12 1 -19z m0
-80 c-3 -7 -5 -2 -5 12 0 14 2 19 5 13 2 -7 2 -19 0 -25z m0 -50 c-3 -7 -5 -2
-5 12 0 14 2 19 5 13 2 -7 2 -19 0 -25z"/>
<path d="M1716 1186 l-39 -34 1 -94 c1 -75 5 -95 19 -105 9 -7 13 -13 8 -13
-5 0 4 -13 20 -30 32 -34 47 -37 65 -15 13 16 17 295 5 315 -11 19 -40 10 -79
-24z m25 -83 c-12 -20 -14 -14 -5 12 4 9 9 14 11 11 3 -2 0 -13 -6 -23z m6
-53 c-2 -11 -6 -22 -9 -26 -4 -3 -5 2 -3 13 2 10 4 21 4 26 1 4 3 7 6 7 3 0 4
-9 2 -20z"/>
</g>
</svg>
